<?xml version="1.0" encoding="utf-8"?>
<!-- Generator: Adobe Illustrator 19.1.0, SVG Export Plug-In . SVG Version: 6.00 Build 0)  -->
<svg version="1.1" id="Layer_1" xmlns="http://www.w3.org/2000/svg" xmlns:xlink="http://www.w3.org/1999/xlink" x="0px" y="0px"
	 viewBox="0 0 640 257.5" style="enable-background:new 0 0 640 257.5;" xml:space="preserve">
<g>
	<g>
		<path d="M330.3,130C305.1,64,264.5,12.6,182.2,7c-21.9-1.5-36.2-5.9-52.4-6.8C92.7-2,48.2,15.2,0,18.4c1.3,9.4,9.3,12,20.5,11.4
			c14.2,16.9,30,32.3,41,52.4c8-1.8,7.5-6.4,13.7,0c15.9,67.6,58.4,108.7,116.2,134.4c7.2,2.6,5.5-3.6,9.1-4.6
			c8.3,11.5,24,15.5,38.7,20.5c3.6-1,2-7.2,9.1-4.6c19.4,8.2,48-6.9,63.8,4.6c7.1-5,20-4.3,27.3-9.1c9.8-1.9,18.4,9.2,22.8,2.3
			c-14.1-17.9-13.4-52-20.5-72.9C339.3,145.9,333.2,137.8,330.3,130z"/>
	</g>
	<g>
		<path d="M395.8,223.4c54.2-10.8,98.5-50.6,138.9-79.7c6.2-4.5,14.2-5.3,18.2-9.1c7.3-7,15.1-24.9,22.8-34.2
			c15.5-8.7,39.1-17.6,54.7-31.9c1.9-1.7,15.2-7.8,6.8-11.4c-18.6-1.6-39.9-13.3-61.5-13.7c-9-0.1-18.4,4.3-27.3,4.6
			c-20.4,0.7-40.6-4.7-59.2-2.3C457,50,436.7,69.1,409.5,75.4c-19.8,20.5-39.1,41.4-54.7,66.1c4.7,42.1,22,77.2,27,113.5
			c4.7,0.6,9.3,1.4,14,2.5C395.5,242.2,392.2,232.9,395.8,223.4z"/>
	</g>
</g>
</svg>
