<?xml version="1.0" encoding="utf-8"?>
<!-- Generator: Adobe Illustrator 16.0.3, SVG Export Plug-In . SVG Version: 6.00 Build 0)  -->
<!DOCTYPE svg PUBLIC "-//W3C//DTD SVG 1.1//EN" "http://www.w3.org/Graphics/SVG/1.1/DTD/svg11.dtd">
<svg version="1.1" id="Layer_1" xmlns="http://www.w3.org/2000/svg" xmlns:xlink="http://www.w3.org/1999/xlink" x="0px" y="0px"
	 width="611.958px" height="246.229px" viewBox="0 272.889 611.958 246.229" enable-background="new 0 272.889 611.958 246.229"
	 xml:space="preserve">
<g>
	<g>
		<path fill="#79AD68" d="M315.85,397.195c-24.098-63.112-62.921-112.264-141.621-117.619c-20.941-1.435-34.616-5.642-50.107-6.502
			C88.645,270.97,46.091,287.418,0,290.478c1.243,8.989,8.893,11.475,19.603,10.901c13.579,16.161,28.688,30.887,39.207,50.107
			c7.65-1.721,7.172-6.12,13.101,0c15.204,64.643,55.845,103.944,111.116,128.521c6.885,2.486,5.259-3.442,8.702-4.399
			c7.937,10.997,22.95,14.822,37.007,19.604c3.443-0.956,1.913-6.885,8.702-4.398c18.551,7.841,45.9-6.599,61.009,4.398
			c6.789-4.781,19.125-4.112,26.105-8.702c9.372-1.816,17.596,8.798,21.803,2.199c-13.482-17.116-12.813-49.725-19.603-69.71
			C324.456,412.399,318.622,404.654,315.85,397.195z"/>
	</g>
	<g>
		<path fill="#79AD68" d="M378.483,486.509c51.829-10.327,94.191-48.386,132.823-76.213c5.929-4.303,13.579-5.068,17.404-8.702
			c6.98-6.693,14.439-23.811,21.802-32.704c14.822-8.319,37.39-16.83,52.308-30.504c1.816-1.625,14.535-7.458,6.502-10.901
			c-17.786-1.53-38.154-12.718-58.81-13.101c-8.605-0.096-17.595,4.112-26.105,4.398c-19.507,0.669-38.823-4.494-56.609-2.199
			c-30.792,4.112-50.203,22.376-76.214,28.4c-18.934,19.604-37.389,39.589-52.307,63.208c4.494,40.258,21.038,73.822,25.819,108.534
			c4.494,0.574,8.893,1.339,13.387,2.391C378.197,504.486,375.041,495.594,378.483,486.509z"/>
	</g>
</g>
</svg>
