<?xml version="1.0" encoding="utf-8"?>
<!-- Generator: Adobe Illustrator 16.0.3, SVG Export Plug-In . SVG Version: 6.00 Build 0)  -->
<!DOCTYPE svg PUBLIC "-//W3C//DTD SVG 1.1//EN" "http://www.w3.org/Graphics/SVG/1.1/DTD/svg11.dtd">
<svg version="1.1" id="Layer_1" xmlns="http://www.w3.org/2000/svg" xmlns:xlink="http://www.w3.org/1999/xlink" x="0px" y="0px"
	 width="611.958px" height="246.228px" viewBox="0 272.889 611.958 246.228" enable-background="new 0 272.889 611.958 246.228"
	 xml:space="preserve">
<g>
	<g>
		<path fill="#6E8A71" d="M315.85,397.196c-24.098-63.112-62.921-112.265-141.621-117.619c-20.941-1.436-34.616-5.643-50.107-6.502
			C88.645,270.97,46.091,287.418,0,290.478c1.243,8.989,8.893,11.476,19.603,10.901c13.579,16.161,28.688,30.887,39.207,50.106
			c7.65-1.721,7.172-6.119,13.101,0c15.204,64.644,55.845,103.944,111.116,128.521c6.885,2.486,5.259-3.441,8.702-4.398
			c7.937,10.997,22.95,14.821,37.007,19.604c3.443-0.956,1.913-6.885,8.702-4.397c18.551,7.841,45.9-6.6,61.009,4.397
			c6.789-4.781,19.126-4.112,26.104-8.702c9.373-1.815,17.598,8.798,21.805,2.199c-13.482-17.116-12.814-49.725-19.604-69.71
			C324.456,412.4,318.622,404.655,315.85,397.196z"/>
	</g>
	<g>
		<path fill="#6E8A71" d="M378.483,486.509c51.83-10.327,94.191-48.386,132.822-76.213c5.93-4.303,13.58-5.067,17.404-8.702
			c6.98-6.693,14.439-23.811,21.803-32.704c14.822-8.319,37.391-16.83,52.309-30.504c1.814-1.625,14.535-7.458,6.502-10.901
			c-17.787-1.529-38.154-12.718-58.811-13.101c-8.605-0.096-17.596,4.112-26.105,4.398c-19.506,0.669-38.822-4.494-56.609-2.199
			c-30.791,4.111-50.203,22.376-76.213,28.399c-18.934,19.604-37.389,39.589-52.307,63.209
			c4.494,40.258,21.037,73.821,25.818,108.533c4.494,0.574,8.893,1.34,13.387,2.392
			C378.198,504.487,375.042,495.594,378.483,486.509z"/>
	</g>
</g>
</svg>
