<?xml version="1.0" encoding="utf-8"?>
<!-- Generator: Adobe Illustrator 19.1.0, SVG Export Plug-In . SVG Version: 6.00 Build 0)  -->
<svg version="1.1" id="Layer_1" xmlns="http://www.w3.org/2000/svg" xmlns:xlink="http://www.w3.org/1999/xlink" x="0px" y="0px"
	 viewBox="0 0 640 528.5" style="enable-background:new 0 0 640 528.5;" xml:space="preserve">
<style type="text/css">
	.st0{fill:#FFFFFF;}
</style>
<g>
	<g>
		<g>
			<path class="st0" d="M498.9,184.4c1.6-17.7-0.1-28.3,1.1-44c-3.1-3.5-6.9-9.7-12.1-7.7c-3.6,16.5,2.9,41.3-3.3,52.9
				c-17.1-1.3-30.3,0.1-45.1,0c-5.8-0.1-12.9-0.5-18.7-3.3c4.4-16.8,0.4-30.7-1.1-48.5c-3.3,0-6.6,0-9.9,0
				c-3,10.5-1.3,24.4-1.1,36.3c0.1,5.5,0.5,13-3.3,15.4c-14-6.2-57.9-12.5-56.2,8.8c9.8,2,25.1,1.6,33,2.2
				c7.2,41.2-56,48.2-73.8,24.2c-2.3-3.1-3.5-9-5.5-13.2c-2.6-5.5-5.2-9.1-5.5-14.3c-1.4-28.9,25.6-53.9,57.3-47.4
				c1.4,6.6,9.1,7.4,13.2,11c3.8,3.3,4.8,8.4,9.9,9.9c4.1-3.6,8.9-6.5,11-12.1c-9.4-7.2-19.2-21-35.2-23.1
				c-11.8-1.6-23.6,1.2-36.3,3.3c-2.1,1.6-3.9,3.4-5.5,5.5c-6.2-1-7.5,2.8-12.1,3.3c-3.6,6-7.1,12-12.1,16.5
				c-0.9,6.8-2.4,13-7.7,15.4c-8.6-10.4,2.9-28.3-2.2-41.8c-8.1,0.9-15.2-3-22,0c-0.2,29.7,6.3,56,2.2,79.3
				c-2,11.5,0.5,24.6,1.1,37.4c4.3,3.1,10.7-2.1,15.4,1.1c2.6-10.1-4-32.3,3.3-42.9c8.6,2.7,7.8,12.6,11,18.7
				c2.8,5.4,7.7,13.9,13.2,17.6c7.9,5.3,22.4,5.4,31.9,7.7c11.6,2.8,23.8-6.5,34.1-4.4c3.8-2.8,8.2-5,13.2-6.6
				c6.7-8.4,9.5-26.4,19.8-27.5c4.8,6,1.3,23.5,3.3,35.2c3.3,1.6,10.7-0.6,14.3-2.2c-0.3-15.7,1.9-28.9,1.1-45.2
				c20.5-5.4,44.6-5.4,65-4.4c-6.1,10.4-2.8,35.2-1.1,50.7c2.4,2,8.1,0.7,12.1,1.1c5.2-9.8-0.3-36.9,3.3-51.8
				c5,0.9,8.5,3.2,15.4,2.2c2.6-4.2,0.5-11.8-1.1-15.4C507.3,183.1,502.7,187.1,498.9,184.4z"/>
		</g>
		<g>
			<path class="st0" d="M225.8,133.7c-1.7,17.9-2.3,39.3-2.2,52.9c-21.2-5.6-45.9,0.7-65,1.1c-3.3-16,3.1-36.6-2.2-51.8
				c-4.3-1.6-9.2-2.5-15.4-2.2c-4.9,3.1-5.4,23.4,0,26.4c-2.8,5.5,0.1,19.2-1.1,23.1c-2.5,2.4-8.3-3.7-12.1,0
				c-4.4,2.6-0.6,13.4-3.3,17.6c3.2,3.3,8.7-2.4,12.1,1.1c-0.2,0.4-0.5,0.7-0.8,1c3.8,3.8,2.9,14.4,3,21c0.1,11.1,0.5,22.9-2.2,30.8
				c4.2,2.7,11.7-4.1,17.6,0c3.1-14.5-1.4-36.7,6.6-46.3c-1-2.3-3.4-3.3-3.3-6.6c18.9,0.4,39.6,3,56.8,5.3c0.3-1.4,1-2.5,2.6-3.1
				c4-0.5,1.7,4.5,2.2,6.6c2,9.3,0.2,25.3,0,40.7c4.4-1.9,12.5,0,16.5-2.2c-4.3-31.7,5.3-61-1.1-92.5c2.5-3.7,4.3-9.9,3.3-19.8
				C236.6,133.2,231,133.7,225.8,133.7z"/>
		</g>
	</g>
	<g>
		<g>
			<path class="st0" d="M325,62.9c-12.2-31.9-31.8-56.8-71.6-59.5c-10.6-0.7-17.5-2.8-25.3-3.3c-17.9-1-39.5,7.3-62.8,8.8
				c0.6,4.5,4.5,5.8,9.9,5.5c6.9,8.2,14.5,15.6,19.8,25.3c3.9-0.9,3.6-3.1,6.6,0c7.7,32.7,28.2,52.5,56.2,65
				c3.5,1.3,2.7-1.7,4.4-2.2c4,5.6,11.6,7.5,18.7,9.9c1.7-0.5,0.9-3.5,4.4-2.2c9.4,4,23.2-3.3,30.8,2.2c3.5-2.4,9.7-2.1,13.2-4.4
				c4.7-0.9,8.9,4.5,11,1.1c-6.8-8.7-6.5-25.1-9.9-35.2C329.4,70.5,326.4,66.6,325,62.9z"/>
		</g>
		<g>
			<path class="st0" d="M356.7,108c26.2-5.2,47.6-24.5,67.2-38.5c3-2.2,6.9-2.6,8.8-4.4c3.5-3.4,7.3-12,11-16.5
				c7.5-4.2,18.9-8.5,26.4-15.4c0.9-0.8,7.3-3.7,3.3-5.5c-9-0.8-19.3-6.5-29.7-6.6c-4.4-0.1-8.9,2.1-13.2,2.2
				c-9.9,0.3-19.6-2.3-28.6-1.1c-15.6,2-25.4,11.3-38.5,14.3c-9.6,9.9-18.9,20-26.4,31.9c2.3,20.4,10.7,37.3,13.1,54.9
				c2.3,0.3,4.5,0.7,6.8,1.2C356.5,117.1,354.9,112.6,356.7,108z"/>
		</g>
	</g>
	<g>
		<g>
			<path class="st0" d="M638.9,311.3c-3.7-2.9-13.9,0.7-17.6-2.2c-2.2-13.6,3.6-36.6,1.1-47.4c-4.4,0.4-10.6-1-13.2,1.1
				c-4.2,14.1,2.5,33.8-4.4,46.2c-7.7-2.2-14.8,2.8-22,3.3c-13.6,1-26.8-3.4-39.6-2.2c-1.4-8.1-4.8-14.3-6.6-22
				c-0.4-2.6,5,0.6,3.3-3.3c-4.5-6.7-2.7-20.4-2.2-26.4c-5.3,1-11.4,1.1-14.3,4.4c-0.9,5,2.1,13.9-2.2,15.4
				c-9.4-3.2-13-12.6-22-16.5c-10-4.3-21.7-0.1-36.3-3.3c-12.2,4.7-22.8,7.8-30.8,16.5c-3.3,3.6-4.2,8.6-8.8,11
				c-1.6,3.9-3.5,12.2-7.7,9.9c-5-10.1,3-27.3-3.3-38.5c-4.9-0.9-6.6,1.5-11,1.1c-3.1,19.2-4.6,43-5.5,63.9c-0.2,3.7,3.1,8.6-1.1,11
				c-8.3-3.9-14.7-11.4-20.9-17.6c-6.5-6.5-11.3-14.7-17.6-20.9c-3.5-3.5-8.6-5.3-12.1-8.8c-7-6.9-10.8-17.1-19.8-22
				c0.9,19.8-3.1,47.7-4.4,69.4c-0.4,7.3,2.5,15.8-4.4,18.7c-4.5-3.7-2.5-9.6-4.4-14.3c-1.9-4.8-6.8-9-8.8-14.3
				c-6.7-17.5-18.4-33.9-24.2-54c-6.1-0.1-6.3-6.2-11-7.7c-12.7,0.3-20.9-1.4-30.6-1.1c0,0,0,0,0,0c0,0,0,0,0,0
				c-0.1,0-0.2-0.1-0.2-0.1c0,0,0,0,0,0c-2.3-0.5-4.5-0.9-6.8-1.2c0.7,5.5,0.9,11,0.2,16.7c7.5,2.1,16.2,1.8,25.3,4.4
				c-3.5,22.4-16.5,44.1-27.5,66.1c-3.4,6.7-4.2,16.6-12.1,19.8c-5.4-2.6-7.6-8.5-9.9-14.3c-5.3-4.4-12.4-12.3-12.1-18.7
				c18.1,0.4,32-15.6,28.6-36.3c-0.3-1.7-4.4-13.9-6.6-15.4c-2.1-1.5-5.4-2.3-7.7-4.4c-2.8-2.5-3.9-5.7-5.5-6.6
				c-19.5-11.2-54.2,0.4-78.2-1.1c1.7,20.8,4.9,43.2-4.4,59.5c-9.8-2.3-19-5.2-24.2-12.1c5.5-4.4,12.4-7.4,15.4-14.3
				c-1-9.8-2.6-13.8-9.9-23.1c-7.2-9.1-14.8-19.4-31.9-18.7c-6.4,0.3-13.8,2.9-20.9,3.3c-11.9,0.6-24.1-2.2-33,2.2
				c-0.4,15.3,5.3,36.4-1.1,47.4c-3.4,2.1-10.9,0.1-13.2,3.3c-0.7,5.5,1,8.5,1.1,13.2c4,4.1,7.4-3.7,11,0c4.3,4.1,0.2,11.4,0,19.8
				c-0.2,9.1,2.4,19,2.2,25.3c17.2,1.9,35.3,3.1,54,2.2c11.7-0.6,25.1-1.1,30.8-4.4c3.7-2.2,6.9-5.4,7.7-7.7
				c2.7-7.2,7.1-19.3,16.5-19.8c0.7,7.8-0.3,19.9,1.1,29.7c4.9,2.9,10.1,1.7,16.5,1.1c6.3-10.8-1.2-25.3,3.3-35.2
				c13.2,0.7,20.6-3.7,29.7,1.1c5.4,14.1,18.6,20.3,22,36.3c12.3,1.4,26.8,0.5,38.5,0c3.7-8.4,4.1-20.2,8.8-27.5
				c14.9,5.3,40.5-0.1,57.3,3.3c-0.1,2.8-4.7,1.2-3.3,5.5c6.5,3.6,6.6,13.2,14.3,15.4c7.3,2.1,16.7-3.4,27.5-1.1
				c6.5-19.9-0.3-50.8,1.1-71.6c4.4,1.3,5.5,5.9,8.8,8.8c3.1,2.7,6.9,3.9,9.9,6.6c4.9,4.5,8.5,11,13.2,15.4
				c4.9,4.6,11.2,7.7,16.5,12.1c7.6,6.3,13.6,13.8,23.1,19.8c2,1.2,4.4,5.8,7.7,3.3c2.7-9,0.9-22.6,3.3-31.9
				c7.1,8.8,11.3,22.3,22,28.6c1.6,1,7,1.7,11,3.3c7.6,3,18.6,8.5,31.9,4.4c2.1,1.9-1.9,3.8,3.3,3.3c11.8-4.8,24.5-8.5,33-16.5
				c5.1,3.1-2.5,9.7,1.1,14.3c5.4-0.8,11.9-0.6,16.5-2.2c4-14.3,1.8-35,7.7-47.4c18.3-5.3,41.5,1.2,61.7,1.1
				c0.9,4.5-5.3,2.1-4.4,6.6c2.2,13.7,1.9,29.1-1.1,39.6c6.5,0.2,11.8-0.7,16.5-2.2c0.7-14.4-1.4-31.5,1.1-44
				c3.3,1.9,7.5,2.8,13.2,2.2C639.2,324.5,641.4,316.1,638.9,311.3z M83.9,312.4c-17.6-0.4-35.2,4.8-49.6,1.1
				c-3.3-8.5-2.2-21.3-3.3-31.9C55.6,267.2,114.7,288.8,83.9,312.4z M94.9,357.6c-14.2,10.2-35.9,6-59.5,6.6
				c1.5-10.8-1.7-18.3-2.2-31.9c20.5-0.6,37,0.7,57.3,2.2c3.9-1.2,1.3,3.2,2.2,5.5C94,343.6,98.7,349.5,94.9,357.6z M145.5,322.3
				c-8.7-7-4.1-28.4-3.3-39.6c15,0.2,35.4-3.2,51.8,2.2c1.8,11.9,12.4,19.9,6.6,33C184.5,328.5,167,324.3,145.5,322.3z M286.5,338.8
				c-12.8,0.3-25-0.7-34.1-1.1c6.7-14.6,9.8-32.8,18.7-45.2c1.3-0.2,2,0.2,2.2,1.1C277.8,307.9,287.6,326,286.5,338.8z M525.5,349.9
				c-5.9,0.4-5.4-5.6-9.9-6.6c-12.7,14.3-38.6,16.4-58.4,7.7c-11.1-13.5-19.2-33.3-15.4-58.4c11.2-6.5,26.1-19.2,44.1-16.5
				c10.1,1.5,15.8,7.5,23.1,13.2c6.7-0.3,5.1-8.9,13.2-7.7C523.7,300.8,530,327.5,525.5,349.9z"/>
		</g>
	</g>
	<g>
		<path class="st0" d="M165.3,463.9v-51c0-0.7,0.4-1,1.1-1h15.9c3.1,0,5.5,0.8,7.1,2.4c1.6,1.6,2.5,4,2.5,7.1v12.2
			c0,1.2-0.4,2.3-1.2,3.1c-0.8,0.9-1.8,1.4-3,1.6v0.1c1.2,0.2,2.2,0.7,3,1.6c0.8,0.9,1.2,1.9,1.2,3.1v12.2c0,3.1-0.8,5.5-2.5,7.1
			s-4,2.4-7.1,2.4h-15.9c-0.3,0-0.6-0.1-0.8-0.3C165.4,464.5,165.3,464.3,165.3,463.9z M174.4,434.1h6.1c0.9,0,1.5-0.2,2-0.7
			c0.5-0.5,0.7-1.1,0.7-1.9v-8.2c0-1.8-0.9-2.7-2.7-2.7h-6.1V434.1z M174.4,456.3h6.1c1.8,0,2.7-0.9,2.7-2.7v-8.1
			c0-1.8-0.9-2.7-2.7-2.7h-6.1V456.3z"/>
		<path class="st0" d="M198.6,463.9v-51c0-0.7,0.4-1,1.1-1h16.7c3.1,0,5.5,0.8,7.1,2.4c1.6,1.6,2.4,4,2.4,7.1v16.2
			c0,4.5-1.6,7.4-4.9,8.8l4.6,17.4c0.2,0.8-0.1,1.2-0.9,1.2h-6.9c-0.6,0-1-0.3-1.1-0.9l-4.4-16.9h-4.6v16.7c0,0.3-0.1,0.6-0.3,0.8
			c-0.2,0.2-0.5,0.3-0.8,0.3h-6.9c-0.3,0-0.6-0.1-0.8-0.3C198.7,464.5,198.6,464.3,198.6,463.9z M207.6,438.4h6.6
			c1.8,0,2.7-0.9,2.7-2.7v-12.5c0-1.8-0.9-2.7-2.7-2.7h-6.6V438.4z"/>
		<path class="st0" d="M232.5,463.9v-51c0-0.3,0.1-0.6,0.3-0.8c0.2-0.2,0.4-0.3,0.7-0.3H258c0.7,0,1.1,0.3,1.1,1v6.7
			c0,0.8-0.4,1.1-1.1,1.1h-16.7V434h12.7c0.7,0,1.1,0.4,1.1,1.1v6.6c0,0.8-0.4,1.1-1.1,1.1h-12.7v13.4H258c0.4,0,0.7,0.1,0.8,0.2
			c0.2,0.2,0.2,0.4,0.2,0.8v6.7c0,0.7-0.4,1.1-1.1,1.1h-24.5c-0.3,0-0.5-0.1-0.7-0.3C232.6,464.5,232.5,464.3,232.5,463.9z"/>
		<path class="st0" d="M263.7,413.3c0-0.1,0-0.1,0-0.2c0-0.8,0.4-1.2,1.3-1.2h6.4c0.9,0,1.3,0.4,1.4,1.3l2.6,31.1h0.3l6.6-31.2
			c0.2-0.8,0.7-1.2,1.5-1.2h4c0.8,0,1.3,0.4,1.5,1.2l6.5,31.2h0.4l2.7-31.1c0.1-0.8,0.5-1.3,1.4-1.3h6.4c0.9,0,1.3,0.4,1.3,1.2
			c0,0.1,0,0.1,0,0.2l-5.8,50.5c-0.1,0.8-0.5,1.3-1.4,1.3H294c-0.8,0-1.3-0.4-1.5-1.2l-6.9-30.1l-7,30.1c-0.2,0.8-0.7,1.1-1.5,1.1
			h-6.7c-0.9,0-1.3-0.4-1.4-1.3L263.7,413.3z"/>
		<path class="st0" d="M312.9,463.9v-51c0-0.7,0.4-1,1.1-1h6.9c0.7,0,1.1,0.3,1.1,1v51c0,0.3-0.1,0.6-0.3,0.8
			c-0.2,0.2-0.5,0.3-0.8,0.3H314C313.3,465,312.9,464.7,312.9,463.9z"/>
		<path class="st0" d="M328.6,463.9v-51c0-0.7,0.4-1,1.1-1h6.6c0.6,0,1,0.3,1.2,0.8l10.1,28.3h0.4v-28.1c0-0.7,0.4-1,1.1-1h6.9
			c0.7,0,1.1,0.3,1.1,1v51c0,0.3-0.1,0.6-0.3,0.8c-0.2,0.2-0.5,0.3-0.8,0.3h-6.6c-0.6,0-1-0.3-1.2-0.9L338,435.8h-0.3v28.2
			c0,0.7-0.4,1.1-1.1,1.1h-6.9c-0.3,0-0.6-0.1-0.8-0.3C328.7,464.5,328.6,464.3,328.6,463.9z"/>
		<path class="st0" d="M363.6,455.4v-34c0-3.1,0.8-5.5,2.4-7.1c1.6-1.6,4-2.4,7.1-2.4h8.8c3.1,0,5.5,0.8,7.1,2.5
			c1.6,1.6,2.5,4,2.5,7.1v6.9c0,0.7-0.4,1-1.1,1h-6.7c-0.7,0-1.1-0.3-1.1-1v-5.1c0-1.8-0.9-2.7-2.7-2.7h-4.8c-1.8,0-2.7,0.9-2.7,2.7
			v30.3c0,1.8,0.9,2.7,2.7,2.7h4.8c1.8,0,2.7-0.9,2.7-2.7v-8.9h-3.4c-0.7,0-1.1-0.3-1.1-1V437c0-0.7,0.4-1.1,1.1-1.1h11.2
			c0.7,0,1.1,0.4,1.1,1.1v18.5c0,3.1-0.8,5.5-2.5,7.1c-1.6,1.6-4,2.5-7.1,2.5h-8.8c-3.1,0-5.5-0.8-7.1-2.4S363.6,458.6,363.6,455.4z
			"/>
		<path class="st0" d="M414.8,455.4v-34c0-3.1,0.8-5.5,2.5-7.1c1.6-1.6,4-2.4,7.2-2.4h7.5c3.1,0,5.5,0.8,7.1,2.5
			c1.6,1.6,2.5,4,2.5,7.1v7.2c0,0.7-0.4,1-1.1,1h-6.7c-0.7,0-1.1-0.3-1.1-1v-5.3c0-1.8-0.9-2.7-2.7-2.7h-3.5c-1.8,0-2.7,0.9-2.7,2.7
			v30.3c0,1.8,0.9,2.7,2.7,2.7h3.5c1.8,0,2.7-0.9,2.7-2.7v-5.3c0-0.7,0.4-1.1,1.1-1.1h6.7c0.3,0,0.6,0.1,0.8,0.3
			c0.2,0.2,0.3,0.5,0.3,0.8v7.2c0,3.1-0.8,5.5-2.5,7.1c-1.6,1.6-4,2.5-7.1,2.5h-7.5c-3.1,0-5.5-0.8-7.2-2.4S414.8,458.6,414.8,455.4
			z"/>
		<g>
			<path class="st0" d="M448.1,439v-17.5c0-3.1,0.8-5.5,2.4-7.1c1.6-1.6,4-2.4,7.1-2.4h7.5c3.1,0,5.5,0.8,7.1,2.4
				c1.6,1.6,2.4,4,2.4,7.1V439c0,3.1-0.8,5.5-2.4,7.1s-4,2.4-7.1,2.4h-7.5c-3.1,0-5.5-0.8-7.1-2.4S448.1,442.1,448.1,439z
				 M456.9,437.3c0,1.8,0.9,2.7,2.7,2.7h3.8c1.8,0,2.7-0.9,2.7-2.7v-14.2c0-1.8-0.9-2.7-2.7-2.7h-3.8c-1.8,0-2.7,0.9-2.7,2.7V437.3z
				"/>
			<path class="st0" d="M448.6,456h25.6c0.3,0,0.5,0.4,0.5,1.1v6.9c0,0.7-0.2,1.1-0.5,1.1h-25.6c-0.2,0-0.3-0.1-0.4-0.3
				c-0.1-0.2-0.1-0.5-0.1-0.8V457C448.1,456.3,448.2,456,448.6,456z"/>
		</g>
	</g>
	<g>
		<path class="st0" d="M228.7,498.6c0.5-1.1,1.1-2,1.9-2.9c0.8-0.9,1.8-1.5,2.8-2s2.2-0.8,3.5-0.8c1.3,0,2.6,0.2,3.9,0.8
			c1.6,0.7,2.8,1.6,3.7,2.8c0.9,1.2,1.3,2.5,1.4,3.8l-3.3,0.7c0-0.6-0.1-1.1-0.3-1.6c-0.2-0.5-0.4-0.9-0.7-1.2
			c-0.3-0.4-0.6-0.7-1-0.9c-0.4-0.3-0.7-0.5-1.1-0.6c-0.8-0.4-1.6-0.5-2.4-0.4c-0.8,0.1-1.5,0.3-2.1,0.7c-0.6,0.4-1.2,0.8-1.7,1.4
			c-0.5,0.6-0.9,1.2-1.2,1.9c-0.3,0.8-0.5,1.5-0.6,2.3c-0.1,0.8,0,1.6,0.2,2.3c0.2,0.7,0.6,1.4,1,2c0.5,0.6,1.1,1,1.8,1.4
			c0.4,0.2,0.8,0.3,1.3,0.4c0.5,0.1,0.9,0.1,1.4,0.1c0.5,0,0.9-0.2,1.4-0.4c0.5-0.2,0.9-0.5,1.3-0.9l2.1,2.7
			c-0.6,0.5-1.2,0.9-1.9,1.2c-0.7,0.3-1.5,0.4-2.3,0.5c-0.8,0.1-1.6,0-2.4-0.1c-0.8-0.1-1.6-0.3-2.2-0.6c-1.2-0.5-2.2-1.3-3-2.2
			c-0.8-1-1.4-2-1.8-3.2c-0.4-1.1-0.5-2.3-0.5-3.6C227.9,500.8,228.2,499.7,228.7,498.6z"/>
		<path class="st0" d="M252.6,518.2c-1.3-0.4-2.4-1-3.3-1.9c-0.9-0.8-1.6-1.8-2.1-2.9c-0.5-1.1-0.8-2.2-0.9-3.5s0.1-2.4,0.4-3.5
			c0.4-1.2,1-2.3,1.8-3.2c0.8-0.9,1.7-1.7,2.8-2.3c1-0.6,2.2-1,3.4-1.1c1.2-0.2,2.5,0,3.7,0.4c1.3,0.4,2.4,1,3.3,1.9
			c0.9,0.9,1.6,1.8,2.1,2.9c0.5,1.1,0.8,2.3,0.8,3.5c0.1,1.2-0.1,2.4-0.4,3.5c-0.4,1.2-1,2.3-1.7,3.2c-0.8,0.9-1.7,1.7-2.7,2.3
			c-1,0.6-2.2,1-3.4,1.1C255.1,518.7,253.9,518.6,252.6,518.2z M250.3,507.5c-0.2,0.8-0.4,1.6-0.4,2.3c0,0.8,0.1,1.5,0.4,2.2
			c0.3,0.7,0.7,1.3,1.2,1.8c0.5,0.5,1.2,0.9,2,1.2c0.8,0.3,1.6,0.3,2.4,0.2c0.8-0.1,1.4-0.4,2.1-0.9c0.6-0.4,1.2-1,1.6-1.6
			c0.5-0.6,0.8-1.3,1-2.1c0.2-0.8,0.4-1.6,0.3-2.4c0-0.8-0.2-1.5-0.4-2.2c-0.3-0.7-0.7-1.3-1.2-1.8c-0.5-0.5-1.2-0.9-2-1.2
			c-0.8-0.3-1.6-0.3-2.4-0.2c-0.8,0.1-1.5,0.4-2.1,0.8c-0.6,0.4-1.1,1-1.6,1.6C250.9,506,250.5,506.7,250.3,507.5z"/>
		<path class="st0" d="M272.8,511.1l-2.4,11.8l-3.6-0.7l3.8-18.3l2.8,0.6l7.1,14l2.5-12l3.6,0.7l-3.8,18.3l-2.9-0.6L272.8,511.1z"/>
		<path class="st0" d="M289.1,516.9c0.1-1.1,0.4-2.2,1-3.3c0.5-1.1,1.2-2,2.1-2.8c0.9-0.8,1.9-1.4,3.1-1.8c1.2-0.4,2.5-0.6,4-0.4
			c1.7,0.2,3.2,0.7,4.3,1.6c1.2,0.9,2,2,2.5,3.2l-3,1.6c-0.2-0.6-0.4-1-0.8-1.4c-0.3-0.4-0.7-0.7-1-1c-0.4-0.3-0.8-0.5-1.2-0.6
			c-0.4-0.1-0.9-0.2-1.3-0.3c-0.9-0.1-1.7,0-2.4,0.3c-0.7,0.3-1.3,0.7-1.8,1.3c-0.5,0.5-0.9,1.2-1.2,1.9c-0.3,0.7-0.5,1.4-0.6,2.2
			c-0.1,0.8,0,1.6,0.1,2.4c0.2,0.8,0.5,1.5,0.9,2.1c0.4,0.6,0.9,1.2,1.6,1.6c0.6,0.4,1.4,0.7,2.2,0.8c0.4,0,0.9,0,1.3,0
			c0.5-0.1,0.9-0.2,1.3-0.4c0.4-0.2,0.8-0.4,1.2-0.8c0.4-0.3,0.7-0.7,1-1.2l2.8,2c-0.4,0.7-0.9,1.2-1.5,1.7c-0.6,0.5-1.3,0.9-2,1.2
			c-0.7,0.3-1.5,0.5-2.3,0.6c-0.8,0.1-1.6,0.1-2.3,0c-1.3-0.1-2.5-0.5-3.6-1.2c-1-0.7-1.9-1.5-2.6-2.5c-0.7-1-1.2-2.1-1.5-3.3
			C289.1,519.2,289,518,289.1,516.9z"/>
		<path class="st0" d="M317.7,528.5c-1.4,0-2.6-0.3-3.7-0.9c-1.1-0.6-2.1-1.3-2.8-2.2c-0.8-0.9-1.4-1.9-1.8-3.1
			c-0.4-1.1-0.6-2.3-0.6-3.5c0-1.2,0.3-2.4,0.8-3.6c0.5-1.1,1.1-2.1,2-3c0.8-0.9,1.8-1.6,2.9-2c1.1-0.5,2.4-0.7,3.7-0.7
			c1.4,0,2.6,0.3,3.7,0.9c1.1,0.6,2,1.3,2.8,2.2c0.8,0.9,1.4,1.9,1.8,3.1c0.4,1.1,0.6,2.3,0.6,3.5c0,1.2-0.3,2.4-0.7,3.6
			c-0.5,1.1-1.1,2.1-1.9,3c-0.8,0.9-1.8,1.5-2.9,2C320.2,528.3,319,528.5,317.7,528.5z M312.4,518.9c0,0.8,0.1,1.6,0.3,2.4
			s0.6,1.4,1,2s1,1.1,1.7,1.4c0.7,0.4,1.4,0.6,2.3,0.6c0.9,0,1.7-0.2,2.3-0.5c0.7-0.3,1.3-0.8,1.7-1.4c0.5-0.6,0.8-1.3,1.1-2
			c0.2-0.7,0.4-1.5,0.4-2.3c0-0.8-0.1-1.6-0.3-2.4c-0.2-0.8-0.6-1.4-1-2c-0.5-0.6-1-1.1-1.7-1.4c-0.7-0.4-1.4-0.5-2.3-0.6
			c-0.9,0-1.7,0.2-2.4,0.5s-1.3,0.8-1.7,1.4c-0.5,0.6-0.8,1.2-1.1,2C312.5,517.4,312.4,518.2,312.4,518.9z"/>
		<path class="st0" d="M332.4,528.2l-1.6-18.7l8.3-0.7c0.9-0.1,1.7,0,2.4,0.3c0.8,0.3,1.4,0.7,2,1.3c0.6,0.5,1,1.2,1.4,1.9
			c0.4,0.7,0.6,1.5,0.6,2.2c0.1,1.2-0.1,2.3-0.6,3.4s-1.3,1.8-2.3,2.4l4.9,6.7l-4.1,0.3l-4.3-5.9l-3.6,0.3l0.5,6.3L332.4,528.2z
			 M335.2,518.4l4.5-0.4c0.3,0,0.6-0.1,0.9-0.3c0.3-0.2,0.5-0.4,0.7-0.7c0.2-0.3,0.3-0.6,0.4-1c0.1-0.4,0.1-0.8,0.1-1.2
			c0-0.4-0.1-0.8-0.3-1.2c-0.2-0.4-0.4-0.7-0.6-0.9c-0.3-0.3-0.5-0.4-0.9-0.6c-0.3-0.1-0.6-0.2-1-0.1l-4.4,0.4L335.2,518.4z"/>
		<path class="st0" d="M352.5,526.2l-3.3-18.4l6.7-1.2c1.5-0.3,2.9-0.3,4.1,0c1.2,0.3,2.3,0.8,3.2,1.5c0.9,0.7,1.7,1.6,2.2,2.6
			c0.6,1,1,2.2,1.2,3.5c0.3,1.4,0.3,2.7,0.1,3.9c-0.2,1.2-0.7,2.3-1.3,3.2c-0.7,0.9-1.5,1.7-2.5,2.4c-1,0.6-2.2,1.1-3.6,1.3
			L352.5,526.2z M363,514.7c-0.2-0.9-0.4-1.7-0.8-2.4c-0.4-0.7-0.8-1.3-1.4-1.7c-0.6-0.5-1.2-0.8-2-0.9c-0.7-0.2-1.5-0.2-2.4,0
			l-3.1,0.6l2.2,12.1l3.1-0.6c0.9-0.2,1.6-0.5,2.3-0.9c0.6-0.4,1.1-1,1.5-1.6c0.4-0.6,0.6-1.3,0.7-2.1
			C363.2,516.4,363.2,515.6,363,514.7z"/>
		<path class="st0" d="M381.6,507.3l3.7,11.4l-3.5,1.1l-5.8-17.8l2.7-0.9l13.1,8.6l-3.8-11.7l3.5-1.1l5.8,17.8l-2.8,0.9L381.6,507.3
			z"/>
		<path class="st0" d="M398.6,504.1c-0.5-1-0.7-2.2-0.8-3.4c-0.1-1.2,0.1-2.3,0.4-3.5c0.4-1.1,1-2.2,1.8-3.1s1.9-1.7,3.2-2.3
			c1.6-0.7,3.1-1,4.5-0.8c1.5,0.2,2.7,0.7,3.8,1.6l-1.8,2.9c-0.4-0.4-0.9-0.7-1.4-0.9c-0.5-0.2-0.9-0.3-1.4-0.3
			c-0.5,0-0.9,0-1.3,0.1c-0.4,0.1-0.9,0.2-1.2,0.4c-0.8,0.4-1.5,0.9-2,1.5s-0.8,1.3-1,2c-0.2,0.7-0.2,1.5-0.1,2.2
			c0.1,0.8,0.3,1.5,0.6,2.2c0.3,0.8,0.8,1.4,1.3,2c0.6,0.6,1.2,1.1,1.8,1.4c0.7,0.3,1.4,0.5,2.2,0.6c0.8,0,1.5-0.1,2.3-0.4
			c0.4-0.2,0.8-0.4,1.1-0.7c0.4-0.3,0.7-0.6,1-1c0.3-0.4,0.5-0.8,0.7-1.3c0.2-0.5,0.3-1,0.2-1.5l3.4,0.4c0,0.8-0.1,1.5-0.4,2.2
			c-0.3,0.7-0.7,1.4-1.2,2c-0.5,0.6-1,1.2-1.7,1.7c-0.6,0.5-1.3,0.9-2,1.2c-1.2,0.5-2.5,0.8-3.7,0.7c-1.2-0.1-2.4-0.4-3.5-0.9
			c-1.1-0.5-2.1-1.2-3-2.1C399.8,506.2,399.1,505.2,398.6,504.1z"/>
	</g>
</g>
</svg>
