<?xml version="1.0" encoding="utf-8"?>
<!-- Generator: Adobe Illustrator 16.0.3, SVG Export Plug-In . SVG Version: 6.00 Build 0)  -->
<!DOCTYPE svg PUBLIC "-//W3C//DTD SVG 1.1//EN" "http://www.w3.org/Graphics/SVG/1.1/DTD/svg11.dtd">
<svg version="1.1" id="Layer_1" xmlns="http://www.w3.org/2000/svg" xmlns:xlink="http://www.w3.org/1999/xlink" x="0px" y="0px"
	 width="611.405px" height="505.361px" viewBox="0.601 143.328 611.405 505.361"
	 enable-background="new 0.601 143.328 611.405 505.361" xml:space="preserve">
<g>
	<g>
		<g>
			<path fill="#6E8A71" d="M477.073,319.644c1.529-16.926-0.096-27.062,1.053-42.075c-2.965-3.347-6.598-9.274-11.57-7.362
				c-3.441,15.777,2.771,39.492-3.156,50.586c-16.352-1.244-28.975,0.096-43.127,0c-5.547-0.097-12.336-0.479-17.883-3.156
				c4.209-16.065,0.385-29.357-1.051-46.379c-3.156,0-6.311,0-9.467,0c-2.869,10.041-1.244,23.334-1.053,34.713
				c0.096,5.259,0.479,12.431-3.154,14.726c-13.389-5.929-55.367-11.952-53.742,8.415c9.371,1.913,24.002,1.53,31.557,2.104
				c6.885,39.397-53.551,46.092-70.571,23.143c-2.199-2.964-3.347-8.605-5.259-12.623c-2.486-5.259-4.972-8.701-5.259-13.674
				c-1.339-27.637,24.479-51.542,54.792-45.327c1.34,6.312,8.703,7.077,12.623,10.519c3.635,3.156,4.59,8.033,9.469,9.468
				c3.92-3.442,8.51-6.216,10.518-11.571c-8.988-6.885-18.359-20.081-33.66-22.089c-11.283-1.53-22.566,1.147-34.711,3.155
				c-2.008,1.531-3.729,3.252-5.259,5.26c-5.929-0.956-7.172,2.678-11.571,3.156c-3.442,5.736-6.789,11.475-11.57,15.777
				c-0.861,6.504-2.295,12.432-7.363,14.728c-8.224-9.945,2.773-27.062-2.104-39.972c-7.746,0.86-14.535-2.869-21.038,0
				c-0.191,28.4,6.024,53.551,2.104,75.832c-1.913,10.996,0.478,23.523,1.052,35.764c4.112,2.964,10.231-2.008,14.726,1.052
				c2.486-9.657-3.825-30.888,3.156-41.022c8.224,2.582,7.458,12.049,10.519,17.881c2.677,5.164,7.363,13.293,12.623,16.83
				c7.554,5.068,21.419,5.164,30.505,7.363c11.092,2.678,22.758-6.216,32.607-4.207c3.635-2.679,7.842-4.781,12.621-6.312
				c6.408-8.032,9.084-25.245,18.936-26.297c4.59,5.738,1.242,22.472,3.154,33.66c3.156,1.529,10.232-0.574,13.676-2.104
				c-0.287-15.013,1.816-27.636,1.051-43.222c19.604-5.164,42.648-5.164,62.156-4.209c-5.832,9.945-2.678,33.66-1.053,48.482
				c2.295,1.912,7.746,0.67,11.57,1.053c4.973-9.371-0.285-35.287,3.156-49.535c4.781,0.861,8.129,3.061,14.727,2.104
				c2.486-4.017,0.479-11.284-1.053-14.726C485.106,318.4,480.708,322.225,477.073,319.644z"/>
		</g>
		<g>
			<path fill="#6E8A71" d="M215.921,271.162c-1.626,17.117-2.2,37.582-2.104,50.586c-20.272-5.355-43.892,0.668-62.156,1.051
				c-3.155-15.299,2.964-34.998-2.104-49.533c-4.112-1.53-8.798-2.391-14.727-2.104c-4.686,2.963-5.164,22.375,0,25.244
				c-2.677,5.26,0.096,18.36-1.052,22.09c-2.391,2.295-7.937-3.539-11.57,0c-4.208,2.485-0.574,12.812-3.156,16.83
				c3.06,3.154,8.319-2.296,11.57,1.051c-0.191,0.383-0.478,0.67-0.765,0.957c3.634,3.633,2.773,13.77,2.869,20.082
				c0.096,10.613,0.478,21.897-2.104,29.451c4.017,2.582,11.188-3.92,16.83,0c2.964-13.865-1.338-35.094,6.312-44.273
				c-0.957-2.199-3.251-3.155-3.156-6.312c18.073,0.382,37.868,2.869,54.315,5.068c0.287-1.339,0.957-2.392,2.486-2.964
				c3.825-0.479,1.625,4.303,2.104,6.312c1.912,8.894,0.191,24.193,0,38.919c4.207-1.816,11.953,0,15.778-2.104
				c-4.112-30.312,5.068-58.331-1.052-88.453c2.391-3.538,4.112-9.467,3.156-18.934
				C226.249,270.684,220.894,271.162,215.921,271.162z"/>
		</g>
	</g>
	<g>
		<g>
			<path fill="#6E8A71" d="M310.782,203.459c-11.667-30.504-30.41-54.315-68.468-56.897c-10.136-0.669-16.734-2.677-24.193-3.155
				c-17.117-0.957-37.772,6.979-60.052,8.415c0.574,4.303,4.303,5.546,9.467,5.26c6.598,7.841,13.865,14.917,18.934,24.193
				c3.729-0.86,3.442-2.964,6.311,0c7.363,31.27,26.966,50.203,53.742,62.156c3.347,1.243,2.582-1.625,4.207-2.104
				c3.825,5.355,11.093,7.172,17.882,9.467c1.625-0.478,0.86-3.347,4.208-2.104c8.988,3.825,22.185-3.155,29.452,2.104
				c3.347-2.295,9.275-2.008,12.623-4.208c4.494-0.861,8.51,4.303,10.52,1.052c-6.504-8.319-6.217-24.002-9.467-33.66
				C314.989,210.727,312.12,206.997,310.782,203.459z"/>
		</g>
		<g>
			<path fill="#6E8A71" d="M341.094,246.586c25.055-4.973,45.52-23.428,64.262-36.815c2.867-2.104,6.598-2.486,8.414-4.208
				c3.348-3.251,6.98-11.475,10.52-15.778c7.172-4.016,18.072-8.128,25.244-14.726c0.859-0.765,6.98-3.538,3.156-5.26
				c-8.607-0.765-18.455-6.215-28.4-6.311c-4.207-0.096-8.512,2.008-12.623,2.104c-9.467,0.287-18.742-2.2-27.35-1.052
				c-14.916,1.913-24.287,10.806-36.814,13.674c-9.18,9.467-18.074,19.125-25.246,30.504c2.201,19.508,10.232,35.668,12.527,52.499
				c2.199,0.287,4.303,0.67,6.502,1.148C340.903,255.289,339.374,250.985,341.094,246.586z"/>
		</g>
	</g>
	<g>
		<g>
			<path fill="#6E8A71" d="M610.948,440.992c-3.537-2.773-13.291,0.67-16.83-2.105c-2.104-13.004,3.441-34.998,1.053-45.325
				c-4.207,0.382-10.137-0.956-12.623,1.052c-4.016,13.482,2.393,32.32-4.207,44.18c-7.363-2.105-14.152,2.678-21.037,3.156
				c-13.006,0.955-25.629-3.252-37.869-2.105c-1.338-7.744-4.59-13.674-6.311-21.037c-0.383-2.484,4.781,0.574,3.156-3.154
				c-4.305-6.406-2.582-19.508-2.105-25.246c-5.066,0.957-10.9,1.053-13.674,4.209c-0.861,4.779,2.008,13.291-2.104,14.727
				c-8.988-3.061-12.434-12.049-21.037-15.778c-9.562-4.112-20.752-0.097-34.713-3.155c-11.666,4.494-21.803,7.457-29.453,15.777
				c-3.154,3.443-4.016,8.225-8.414,10.52c-1.529,3.729-3.348,11.666-7.363,9.467c-4.781-9.658,2.869-26.104-3.156-36.815
				c-4.686-0.86-6.311,1.435-10.518,1.052c-2.965,18.359-4.398,41.119-5.26,61.105c-0.191,3.537,2.965,8.225-1.053,10.52
				c-7.938-3.73-14.057-10.902-19.984-16.83c-6.217-6.217-10.807-14.059-16.83-19.986c-3.348-3.348-8.225-5.066-11.57-8.414
				c-6.695-6.6-10.328-16.354-18.934-21.038c0.859,18.935-2.965,45.612-4.209,66.364c-0.382,6.98,2.391,15.107-4.208,17.881
				c-4.303-3.537-2.391-9.18-4.208-13.674c-1.817-4.59-6.502-8.605-8.415-13.674c-6.407-16.734-17.595-32.418-23.141-51.639
				c-5.833-0.096-6.024-5.929-10.519-7.363c-12.145,0.287-19.986-1.338-29.261-1.052l0,0l0,0c-0.096,0-0.191-0.096-0.191-0.096l0,0
				c-2.199-0.478-4.303-0.861-6.502-1.147c0.669,5.26,0.86,10.52,0.191,15.971c7.172,2.008,15.491,1.721,24.193,4.207
				c-3.347,21.42-15.778,42.17-26.297,63.207c-3.251,6.408-4.016,15.875-11.571,18.934c-5.164-2.484-7.267-8.127-9.467-13.674
				c-5.068-4.207-11.857-11.762-11.57-17.881c17.308,0.381,30.6-14.918,27.349-34.713c-0.287-1.625-4.208-13.291-6.312-14.727
				c-2.008-1.436-5.164-2.199-7.363-4.207c-2.678-2.391-3.729-5.451-5.259-6.312c-18.647-10.709-51.829,0.383-74.779-1.051
				c1.625,19.889,4.686,41.309-4.208,56.895c-9.372-2.197-18.169-4.973-23.142-11.568c5.26-4.209,11.858-7.076,14.727-13.676
				c-0.957-9.371-2.486-13.195-9.467-22.09c-6.885-8.701-14.153-18.551-30.504-17.881c-6.12,0.287-13.196,2.773-19.986,3.156
				c-11.379,0.574-23.045-2.104-31.556,2.104c-0.382,14.631,5.068,34.809-1.052,45.326c-3.251,2.008-10.423,0.096-12.623,3.156
				c-0.669,5.258,0.956,8.127,1.052,12.621c3.825,3.922,7.076-3.537,10.519,0c4.112,3.922,0.191,10.902,0,18.934
				c-0.191,8.703,2.295,18.17,2.104,24.193c16.447,1.816,33.755,2.965,51.638,2.104c11.188-0.572,24.001-1.051,29.452-4.207
				c3.538-2.104,6.598-5.162,7.363-7.361c2.582-6.885,6.79-18.457,15.778-18.936c0.669,7.459-0.287,19.029,1.052,28.4
				c4.686,2.773,9.658,1.627,15.778,1.053c6.024-10.328-1.147-24.193,3.156-33.66c12.623,0.67,19.699-3.539,28.401,1.053
				c5.164,13.482,17.786,19.41,21.037,34.711c11.762,1.34,25.627,0.479,36.816,0c3.538-8.031,3.92-19.314,8.415-26.297
				c14.248,5.068,38.728-0.096,54.793,3.156c-0.096,2.678-4.494,1.146-3.156,5.26c6.216,3.441,6.312,12.621,13.674,14.727
				c6.981,2.008,15.97-3.252,26.296-1.053c6.217-19.029-0.285-48.576,1.053-68.469c4.209,1.244,5.26,5.643,8.416,8.416
				c2.965,2.582,6.598,3.729,9.467,6.312c4.686,4.303,8.129,10.518,12.623,14.727c4.686,4.398,10.709,7.361,15.777,11.57
				c7.268,6.023,13.006,13.195,22.09,18.934c1.912,1.146,4.207,5.547,7.361,3.154c2.582-8.604,0.861-21.609,3.156-30.504
				c6.789,8.416,10.805,21.324,21.037,27.35c1.529,0.955,6.693,1.627,10.52,3.154c7.268,2.869,17.785,8.129,30.504,4.209
				c2.01,1.816-1.816,3.633,3.156,3.154c11.283-4.59,23.428-8.127,31.557-15.777c4.877,2.965-2.393,9.275,1.051,13.674
				c5.164-0.764,11.381-0.572,15.779-2.104c3.824-13.674,1.721-33.469,7.361-45.326c17.5-5.068,39.686,1.148,59.002,1.053
				c0.859,4.303-5.068,2.008-4.209,6.311c2.105,13.102,1.818,27.828-1.051,37.869c6.215,0.189,11.283-0.67,15.777-2.105
				c0.67-13.77-1.338-30.121,1.053-42.074c3.154,1.816,7.172,2.678,12.621,2.105C611.235,453.615,613.338,445.582,610.948,440.992z
				 M80.229,442.042c-16.83-0.381-33.66,4.592-47.43,1.053c-3.156-8.129-2.104-20.367-3.156-30.504
				C53.167,398.822,109.682,419.476,80.229,442.042z M90.748,485.265c-13.579,9.754-34.329,5.738-56.897,6.312
				c1.435-10.326-1.625-17.498-2.104-30.504c19.603-0.574,35.381,0.67,54.793,2.104c3.729-1.146,1.243,3.061,2.104,5.26
				C89.888,471.878,94.382,477.521,90.748,485.265z M139.134,451.511c-8.319-6.693-3.92-27.158-3.156-37.869
				c14.344,0.191,33.852-3.059,49.534,2.105c1.721,11.379,11.857,19.029,6.311,31.557
				C176.428,457.439,159.694,453.423,139.134,451.511z M273.966,467.289c-12.24,0.287-23.906-0.67-32.608-1.053
				c6.407-13.961,9.371-31.365,17.882-43.223c1.243-0.191,1.913,0.191,2.104,1.053C265.646,437.74,275.018,455.048,273.966,467.289z
				 M502.51,477.902c-5.643,0.383-5.164-5.354-9.467-6.311c-12.145,13.674-36.912,15.684-55.846,7.363
				c-10.615-12.91-18.359-31.844-14.727-55.846c10.709-6.217,24.957-18.359,42.17-15.777c9.658,1.434,15.109,7.172,22.09,12.621
				c6.406-0.287,4.877-8.51,12.621-7.363C500.788,430.951,506.813,456.482,502.51,477.902z"/>
		</g>
	</g>
	<g>
		<path fill="#6E8A71" d="M158.068,586.916v-48.77c0-0.67,0.382-0.955,1.052-0.955h15.204c2.964,0,5.26,0.764,6.79,2.295
			c1.53,1.529,2.391,3.824,2.391,6.789v11.666c0,1.146-0.382,2.199-1.147,2.965c-0.765,0.859-1.721,1.338-2.869,1.529v0.096
			c1.147,0.191,2.104,0.67,2.869,1.529c0.765,0.861,1.147,1.816,1.147,2.965v11.666c0,2.965-0.765,5.26-2.391,6.789
			c-1.625,1.529-3.825,2.297-6.79,2.297H159.12c-0.287,0-0.574-0.098-0.765-0.287C158.164,587.49,158.068,587.298,158.068,586.916z
			 M166.77,558.419h5.833c0.861,0,1.435-0.191,1.913-0.67s0.669-1.051,0.669-1.816v-7.842c0-1.721-0.861-2.582-2.582-2.582h-5.833
			V558.419L166.77,558.419z M166.77,579.646h5.833c1.721,0,2.582-0.859,2.582-2.58v-7.746c0-1.723-0.861-2.582-2.582-2.582h-5.833
			V579.646L166.77,579.646z"/>
		<path fill="#6E8A71" d="M189.911,586.916v-48.77c0-0.67,0.383-0.955,1.052-0.955h15.97c2.964,0,5.259,0.764,6.789,2.295
			c1.53,1.529,2.295,3.824,2.295,6.789v15.49c0,4.305-1.53,7.076-4.686,8.414l4.399,16.641c0.191,0.766-0.096,1.146-0.86,1.146
			h-6.598c-0.574,0-0.957-0.287-1.052-0.861l-4.208-16.158h-4.398v15.969c0,0.287-0.096,0.574-0.287,0.766
			c-0.191,0.189-0.478,0.285-0.765,0.285h-6.598c-0.287,0-0.574-0.096-0.765-0.285C190.007,587.49,189.911,587.298,189.911,586.916z
			 M198.518,562.531h6.311c1.721,0,2.582-0.861,2.582-2.582v-11.953c0-1.721-0.861-2.582-2.582-2.582h-6.311V562.531z"/>
		<path fill="#6E8A71" d="M222.328,586.916v-48.77c0-0.287,0.096-0.572,0.287-0.766c0.191-0.189,0.382-0.287,0.669-0.287h23.428
			c0.669,0,1.052,0.287,1.052,0.957v6.406c0,0.766-0.382,1.053-1.052,1.053h-15.969v12.812h12.145c0.669,0,1.052,0.383,1.052,1.053
			v6.311c0,0.766-0.383,1.053-1.052,1.053h-12.145v12.812h15.969c0.383,0,0.669,0.096,0.765,0.191
			c0.191,0.191,0.191,0.383,0.191,0.766v6.406c0,0.67-0.383,1.053-1.052,1.053h-23.428c-0.287,0-0.479-0.096-0.669-0.287
			C222.424,587.49,222.328,587.298,222.328,586.916z"/>
		<path fill="#6E8A71" d="M252.163,538.529c0-0.096,0-0.096,0-0.191c0-0.764,0.382-1.146,1.243-1.146h6.12
			c0.86,0,1.243,0.383,1.339,1.242l2.486,29.74h0.287l6.311-29.836c0.191-0.766,0.669-1.146,1.435-1.146h3.825
			c0.765,0,1.243,0.383,1.434,1.146l6.216,29.836h0.382l2.582-29.74c0.096-0.766,0.478-1.242,1.339-1.242h6.12
			c0.861,0,1.243,0.383,1.243,1.146c0,0.096,0,0.096,0,0.191l-5.546,48.291c-0.095,0.766-0.478,1.242-1.338,1.242h-6.502
			c-0.765,0-1.243-0.383-1.435-1.146l-6.598-28.783l-6.694,28.783c-0.191,0.766-0.669,1.051-1.434,1.051h-6.407
			c-0.86,0-1.243-0.381-1.338-1.242L252.163,538.529z"/>
		<path fill="#6E8A71" d="M299.21,586.916v-48.77c0-0.67,0.383-0.955,1.052-0.955h6.598c0.67,0,1.053,0.285,1.053,0.955v48.77
			c0,0.287-0.096,0.574-0.287,0.766c-0.191,0.189-0.479,0.285-0.766,0.285h-6.598C299.593,587.966,299.21,587.681,299.21,586.916z"
			/>
		<path fill="#6E8A71" d="M314.223,586.916v-48.77c0-0.67,0.385-0.955,1.053-0.955h6.312c0.572,0,0.955,0.285,1.146,0.764
			l9.658,27.062h0.383v-26.871c0-0.67,0.383-0.955,1.053-0.955h6.598c0.67,0,1.051,0.285,1.051,0.955v48.77
			c0,0.287-0.096,0.574-0.285,0.766c-0.191,0.189-0.479,0.285-0.766,0.285h-6.311c-0.574,0-0.957-0.285-1.148-0.859l-9.754-27.062
			h-0.287v26.967c0,0.67-0.383,1.053-1.051,1.053h-6.6c-0.287,0-0.572-0.098-0.766-0.287
			C314.319,587.49,314.223,587.298,314.223,586.916z"/>
		<path fill="#6E8A71" d="M347.692,578.787v-32.512c0-2.965,0.766-5.26,2.295-6.789c1.529-1.531,3.826-2.295,6.791-2.295h8.414
			c2.965,0,5.26,0.764,6.789,2.391c1.529,1.529,2.391,3.824,2.391,6.789v6.598c0,0.67-0.383,0.957-1.051,0.957h-6.408
			c-0.668,0-1.051-0.287-1.051-0.957v-4.877c0-1.721-0.861-2.582-2.582-2.582h-4.59c-1.723,0-2.582,0.861-2.582,2.582v28.975
			c0,1.723,0.859,2.582,2.582,2.582h4.59c1.721,0,2.582-0.859,2.582-2.582v-8.51h-3.252c-0.67,0-1.053-0.287-1.053-0.957v-6.406
			c0-0.67,0.383-1.053,1.053-1.053h10.711c0.668,0,1.051,0.383,1.051,1.053v17.689c0,2.965-0.766,5.26-2.391,6.789
			c-1.529,1.531-3.824,2.391-6.789,2.391h-8.414c-2.967,0-5.262-0.764-6.791-2.295C348.458,584.238,347.692,581.847,347.692,578.787
			z"/>
		<path fill="#6E8A71" d="M396.653,578.787v-32.512c0-2.965,0.766-5.26,2.391-6.789c1.529-1.531,3.824-2.295,6.885-2.295h7.172
			c2.965,0,5.26,0.764,6.789,2.391c1.529,1.529,2.393,3.824,2.393,6.789v6.885c0,0.67-0.383,0.957-1.053,0.957h-6.406
			c-0.67,0-1.053-0.287-1.053-0.957v-5.068c0-1.721-0.859-2.58-2.582-2.58h-3.348c-1.721,0-2.582,0.859-2.582,2.58v28.975
			c0,1.723,0.861,2.582,2.582,2.582h3.348c1.723,0,2.582-0.859,2.582-2.582v-5.066c0-0.67,0.383-1.053,1.053-1.053h6.406
			c0.285,0,0.572,0.096,0.766,0.287c0.191,0.189,0.287,0.479,0.287,0.766v6.885c0,2.965-0.768,5.26-2.393,6.789
			c-1.529,1.529-3.824,2.391-6.789,2.391h-7.172c-2.965,0-5.26-0.766-6.885-2.295C397.417,584.335,396.653,581.847,396.653,578.787z
			"/>
		<g>
			<path fill="#6E8A71" d="M428.497,563.103v-16.732c0-2.965,0.764-5.26,2.295-6.789c1.529-1.531,3.824-2.295,6.789-2.295h7.172
				c2.963,0,5.26,0.764,6.789,2.295c1.529,1.529,2.295,3.824,2.295,6.789v16.732c0,2.967-0.766,5.262-2.295,6.791
				s-3.826,2.295-6.789,2.295h-7.172c-2.965,0-5.26-0.766-6.789-2.295C429.26,568.365,428.497,566.07,428.497,563.103z
				 M436.911,561.478c0,1.723,0.861,2.582,2.582,2.582h3.633c1.723,0,2.582-0.859,2.582-2.582V547.9
				c0-1.723-0.859-2.582-2.582-2.582h-3.633c-1.721,0-2.582,0.859-2.582,2.582V561.478z"/>
			<path fill="#6E8A71" d="M428.973,579.361h24.48c0.287,0,0.479,0.383,0.479,1.053v6.598c0,0.67-0.191,1.053-0.479,1.053h-24.48
				c-0.189,0-0.285-0.098-0.383-0.287c-0.094-0.191-0.094-0.479-0.094-0.766v-6.693C428.497,579.646,428.59,579.361,428.973,579.361
				z"/>
		</g>
	</g>
	<g>
		<path fill="#6E8A71" d="M218.694,620.097c0.478-1.053,1.052-1.912,1.817-2.771c0.765-0.861,1.721-1.436,2.678-1.914
			c0.956-0.479,2.104-0.766,3.347-0.766c1.243,0,2.486,0.191,3.729,0.766c1.53,0.67,2.677,1.531,3.538,2.678
			c0.86,1.148,1.243,2.391,1.339,3.635l-3.156,0.67c0-0.574-0.096-1.053-0.287-1.529c-0.191-0.48-0.382-0.861-0.669-1.148
			c-0.287-0.383-0.574-0.67-0.956-0.859c-0.382-0.287-0.669-0.479-1.052-0.574c-0.765-0.383-1.53-0.479-2.295-0.383
			s-1.435,0.287-2.008,0.67c-0.574,0.383-1.147,0.766-1.625,1.34c-0.479,0.572-0.861,1.146-1.147,1.814
			c-0.287,0.766-0.479,1.436-0.574,2.199c-0.096,0.766,0,1.531,0.191,2.199c0.191,0.67,0.574,1.34,0.957,1.914
			c0.478,0.572,1.052,0.955,1.721,1.338c0.382,0.191,0.765,0.287,1.243,0.383s0.86,0.096,1.338,0.096
			c0.479,0,0.861-0.191,1.339-0.383c0.478-0.189,0.861-0.479,1.243-0.861l2.008,2.582c-0.574,0.48-1.147,0.861-1.817,1.148
			c-0.67,0.287-1.435,0.383-2.2,0.479s-1.53,0-2.295-0.096s-1.53-0.287-2.104-0.574c-1.147-0.479-2.104-1.242-2.869-2.104
			c-0.765-0.957-1.339-1.912-1.721-3.061c-0.383-1.053-0.479-2.199-0.479-3.441C217.929,622.201,218.216,621.15,218.694,620.097z"/>
		<path fill="#6E8A71" d="M241.549,638.839c-1.243-0.383-2.295-0.955-3.156-1.816c-0.86-0.766-1.53-1.721-2.008-2.771
			c-0.478-1.053-0.765-2.104-0.86-3.348c-0.095-1.244,0.096-2.295,0.382-3.348c0.383-1.146,0.957-2.199,1.721-3.061
			c0.765-0.861,1.626-1.625,2.678-2.199c0.956-0.574,2.104-0.957,3.251-1.053c1.148-0.189,2.391,0,3.539,0.383
			c1.243,0.383,2.295,0.957,3.155,1.818c0.861,0.859,1.53,1.721,2.008,2.771s0.765,2.199,0.765,3.348
			c0.095,1.146-0.096,2.295-0.383,3.348c-0.382,1.146-0.956,2.199-1.625,3.059c-0.765,0.861-1.625,1.627-2.582,2.199
			c-0.956,0.574-2.104,0.957-3.251,1.053C243.939,639.318,242.792,639.222,241.549,638.839z M239.35,628.607
			c-0.191,0.766-0.383,1.529-0.383,2.199c0,0.766,0.096,1.436,0.383,2.105c0.287,0.668,0.669,1.242,1.147,1.721
			s1.147,0.861,1.912,1.146c0.765,0.287,1.53,0.287,2.295,0.191s1.338-0.383,2.008-0.859c0.574-0.385,1.147-0.957,1.53-1.531
			c0.478-0.572,0.765-1.242,0.956-2.008c0.191-0.766,0.382-1.529,0.287-2.295c0-0.766-0.191-1.436-0.383-2.104
			c-0.287-0.67-0.669-1.244-1.147-1.723s-1.147-0.859-1.913-1.146c-0.765-0.287-1.53-0.287-2.295-0.191s-1.434,0.383-2.008,0.766
			c-0.574,0.383-1.052,0.957-1.53,1.529C239.923,627.173,239.541,627.843,239.35,628.607z"/>
		<path fill="#6E8A71" d="M260.865,632.05l-2.295,11.283l-3.442-0.668l3.634-17.5l2.677,0.574l6.79,13.387l2.391-11.475l3.442,0.67
			l-3.633,17.498l-2.773-0.574L260.865,632.05z"/>
		<path fill="#6E8A71" d="M276.452,637.597c0.096-1.053,0.383-2.104,0.957-3.154c0.478-1.055,1.147-1.914,2.008-2.68
			s1.817-1.338,2.965-1.721c1.147-0.383,2.391-0.574,3.825-0.383c1.625,0.189,3.06,0.67,4.112,1.529
			c1.147,0.861,1.913,1.912,2.391,3.061l-2.869,1.529c-0.191-0.572-0.382-0.955-0.765-1.338c-0.287-0.383-0.669-0.67-0.956-0.957
			c-0.382-0.285-0.765-0.479-1.147-0.572c-0.383-0.098-0.861-0.191-1.243-0.287c-0.861-0.096-1.625,0-2.295,0.287
			s-1.243,0.668-1.721,1.242c-0.478,0.479-0.861,1.146-1.147,1.816c-0.287,0.67-0.479,1.338-0.574,2.104
			c-0.096,0.766,0,1.529,0.095,2.295c0.191,0.766,0.479,1.434,0.861,2.008c0.382,0.574,0.86,1.146,1.53,1.531
			c0.574,0.381,1.339,0.668,2.104,0.764c0.382,0,0.86,0,1.243,0c0.478-0.096,0.86-0.191,1.243-0.383
			c0.382-0.191,0.765-0.381,1.147-0.766c0.382-0.285,0.669-0.67,0.956-1.146l2.678,1.912c-0.383,0.67-0.861,1.146-1.435,1.627
			c-0.574,0.479-1.243,0.859-1.913,1.146s-1.434,0.479-2.199,0.572c-0.765,0.096-1.53,0.096-2.199,0
			c-1.243-0.094-2.391-0.477-3.443-1.146c-0.956-0.668-1.816-1.434-2.486-2.391c-0.669-0.957-1.148-2.008-1.435-3.156
			C276.452,639.796,276.356,638.648,276.452,637.597z"/>
		<path fill="#6E8A71" d="M303.801,648.689c-1.339,0-2.486-0.287-3.538-0.861c-1.052-0.572-2.008-1.242-2.678-2.104
			c-0.765-0.859-1.339-1.816-1.721-2.965c-0.382-1.053-0.574-2.199-0.574-3.348s0.287-2.295,0.765-3.441
			c0.478-1.053,1.052-2.008,1.912-2.869c0.765-0.859,1.722-1.529,2.773-1.912c1.052-0.479,2.295-0.67,3.538-0.67
			c1.339,0,2.486,0.287,3.539,0.861s1.912,1.242,2.678,2.104s1.338,1.816,1.721,2.965c0.383,1.053,0.574,2.199,0.574,3.348
			s-0.287,2.295-0.67,3.441c-0.479,1.053-1.051,2.008-1.816,2.869c-0.766,0.859-1.721,1.434-2.771,1.912
			C306.191,648.498,305.044,648.689,303.801,648.689z M298.732,639.509c0,0.766,0.096,1.529,0.287,2.295s0.574,1.338,0.956,1.912
			c0.382,0.574,0.956,1.053,1.625,1.34c0.669,0.381,1.339,0.572,2.2,0.572c0.86,0,1.625-0.191,2.199-0.477
			c0.669-0.287,1.244-0.768,1.626-1.34c0.477-0.574,0.764-1.242,1.051-1.914c0.191-0.668,0.383-1.434,0.383-2.197
			c0-0.766-0.096-1.531-0.285-2.295c-0.191-0.766-0.574-1.34-0.957-1.912c-0.479-0.574-0.957-1.053-1.625-1.34
			c-0.669-0.383-1.339-0.479-2.2-0.574c-0.86,0-1.625,0.191-2.295,0.479c-0.67,0.289-1.243,0.766-1.625,1.34
			c-0.478,0.572-0.765,1.146-1.052,1.912C298.828,638.074,298.732,638.839,298.732,639.509z"/>
		<path fill="#6E8A71" d="M317.858,648.402l-1.531-17.883l7.938-0.67c0.861-0.096,1.625,0,2.295,0.287
			c0.766,0.287,1.34,0.67,1.912,1.244c0.574,0.479,0.957,1.146,1.34,1.816s0.574,1.434,0.574,2.104
			c0.096,1.148-0.096,2.199-0.574,3.252c-0.479,1.051-1.242,1.721-2.199,2.295l4.686,6.406l-3.92,0.287l-4.111-5.643l-3.441,0.287
			l0.477,6.023L317.858,648.402z M320.536,639.031l4.303-0.383c0.287,0,0.574-0.096,0.861-0.287
			c0.285-0.191,0.477-0.383,0.668-0.668c0.191-0.287,0.287-0.574,0.383-0.957s0.096-0.766,0.096-1.146
			c0-0.383-0.096-0.766-0.287-1.148c-0.189-0.383-0.383-0.668-0.572-0.859c-0.287-0.287-0.479-0.383-0.861-0.574
			c-0.287-0.096-0.574-0.189-0.955-0.096l-4.209,0.383L320.536,639.031z"/>
		<path fill="#6E8A71" d="M337.079,646.49l-3.156-17.596l6.406-1.146c1.436-0.287,2.773-0.287,3.922,0s2.199,0.764,3.061,1.434
			c0.859,0.67,1.625,1.531,2.104,2.486c0.574,0.957,0.957,2.105,1.148,3.348c0.285,1.34,0.285,2.582,0.096,3.729
			c-0.191,1.146-0.67,2.199-1.244,3.061c-0.67,0.861-1.434,1.625-2.391,2.295c-0.955,0.574-2.104,1.053-3.441,1.242L337.079,646.49z
			 M347.12,635.494c-0.191-0.861-0.383-1.627-0.768-2.295c-0.381-0.67-0.764-1.244-1.338-1.627
			c-0.572-0.479-1.146-0.766-1.912-0.859c-0.67-0.191-1.436-0.191-2.295,0l-2.965,0.572l2.104,11.57l2.965-0.572
			c0.859-0.191,1.529-0.48,2.199-0.861c0.572-0.383,1.051-0.957,1.434-1.529c0.383-0.574,0.574-1.242,0.67-2.008
			S347.309,636.353,347.12,635.494z"/>
		<path fill="#6E8A71" d="M364.905,628.417l3.539,10.9l-3.348,1.053l-5.547-17.021l2.582-0.859l12.527,8.223l-3.635-11.188
			l3.348-1.053l5.545,17.021l-2.678,0.859L364.905,628.417z"/>
		<path fill="#6E8A71" d="M381.161,625.357c-0.479-0.957-0.668-2.105-0.764-3.252c-0.098-1.146,0.096-2.199,0.381-3.348
			c0.383-1.051,0.957-2.104,1.723-2.965c0.764-0.861,1.816-1.625,3.059-2.199c1.531-0.668,2.967-0.955,4.305-0.764
			c1.436,0.189,2.582,0.668,3.635,1.529l-1.723,2.771c-0.383-0.383-0.859-0.668-1.34-0.859c-0.477-0.191-0.859-0.287-1.338-0.287
			s-0.859,0-1.242,0.096s-0.861,0.191-1.148,0.383c-0.764,0.383-1.434,0.861-1.912,1.436c-0.479,0.572-0.764,1.242-0.955,1.912
			s-0.191,1.436-0.096,2.104c0.096,0.766,0.287,1.436,0.572,2.105c0.287,0.766,0.766,1.338,1.242,1.912
			c0.574,0.572,1.148,1.053,1.723,1.34c0.67,0.285,1.34,0.477,2.104,0.572c0.768,0,1.436-0.096,2.199-0.383
			c0.383-0.189,0.766-0.383,1.053-0.67c0.383-0.287,0.67-0.574,0.957-0.955c0.285-0.383,0.479-0.766,0.668-1.244
			c0.191-0.479,0.287-0.955,0.191-1.434l3.252,0.383c0,0.764-0.096,1.436-0.383,2.104c-0.287,0.67-0.67,1.34-1.146,1.912
			c-0.479,0.574-0.957,1.146-1.627,1.625c-0.574,0.48-1.242,0.861-1.912,1.148c-1.146,0.479-2.391,0.764-3.539,0.668
			c-1.146-0.094-2.295-0.381-3.346-0.859c-1.053-0.479-2.008-1.146-2.869-2.008C382.309,627.365,381.639,626.408,381.161,625.357z"
			/>
	</g>
</g>
</svg>
